<svg width="14" height="14" viewBox="0 0 14 14" fill="none" xmlns="http://www.w3.org/2000/svg">
<path d="M1.5 2.6748H13C13.0414 2.6748 13.0752 2.70858 13.0752 2.75V9.68945C13.0752 9.7093 13.0668 9.72815 13.0527 9.74219L9.49219 13.3027C9.47815 13.3168 9.4593 13.3252 9.43945 13.3252H1.5C1.45858 13.3252 1.4248 13.2914 1.4248 13.25V2.75C1.4248 2.70858 1.45858 2.6748 1.5 2.6748Z" stroke="#3A3533" stroke-width="1.35" stroke-linejoin="round"/>
<rect x="3.75" width="1.3" height="5" rx="0.65" fill="#3A3533"/>
<path fill-rule="evenodd" clip-rule="evenodd" d="M9.45 0.65C9.45 0.291015 9.74101 0 10.1 0C10.459 0 10.75 0.291015 10.75 0.65V4.35C10.75 4.70899 10.459 5 10.1 5C9.74101 5 9.45 4.70899 9.45 4.35V0.65Z" fill="#3A3533"/>
<path d="M12.25 8.8252L12.3506 8.83301C12.582 8.86785 12.7825 9.02058 12.874 9.24121C12.9785 9.49344 12.9206 9.78449 12.7275 9.97754L9.72754 12.9775C9.53449 13.1706 9.24344 13.2285 8.99121 13.124C8.73913 13.0195 8.5752 12.7729 8.5752 12.5V9.5L8.58887 9.36426C8.65171 9.05655 8.92372 8.8252 9.25 8.8252H12.25Z" stroke="#3A3533" stroke-width="1.35" stroke-linejoin="round"/>
</svg>
