<svg width="16" height="21" viewBox="0 0 16 21" fill="none" xmlns="http://www.w3.org/2000/svg">
<path d="M8 0C6.01088 0 4.10322 0.790176 2.6967 2.1967C1.29018 3.60322 0.5 5.51088 0.5 7.5C0.5 9.48912 1.29018 11.3968 2.6967 12.8033C4.10322 14.2098 6.01088 15 8 15C9.98912 15 11.8968 14.2098 13.3033 12.8033C14.7098 11.3968 15.5 9.48912 15.5 7.5C15.5 5.51088 14.7098 3.60322 13.3033 2.1967C11.8968 0.790176 9.98912 0 8 0ZM3.5 20.25V15.2955C4.8245 16.0605 6.3605 16.5 8 16.5C9.57998 16.5024 11.1325 16.0868 12.5 15.2955V20.25C12.5 20.3827 12.4648 20.513 12.3981 20.6277C12.3313 20.7423 12.2352 20.8372 12.1198 20.9027C12.0043 20.9681 11.8736 21.0017 11.7409 21.0001C11.6082 20.9985 11.4783 20.9617 11.3645 20.8935L8 18.8745L4.6355 20.895C4.52156 20.9633 4.39154 21.0001 4.25872 21.0016C4.1259 21.0032 3.99506 20.9694 3.87956 20.9038C3.76407 20.8382 3.66807 20.7431 3.60138 20.6282C3.53469 20.5133 3.49971 20.3828 3.5 20.25Z" fill="#E81C24"/>
</svg>
